<svg width="50" height="50" viewBox="0 0 50 50" fill="none" xmlns="http://www.w3.org/2000/svg">
<rect width="50" height="50" fill="#3F3B37"/>
<path d="M7.593 31.463V18.044L10.104 15.506H17.556L20.094 18.044V20.798L17.88 20.771V18.989L16.449 17.558H11.238L9.78 18.989V30.545L11.238 31.976H16.449L17.88 30.545V28.412H20.094V31.463L17.556 34.028H10.104L7.593 31.463ZM10.509 35H17.988L21.066 31.895V28.547L22.443 29.951V33.596L19.689 36.377H11.886L10.509 35ZM10.752 19.394L11.643 18.53H16.071L16.908 19.394V19.907H13.344L12.156 21.095V31.004H11.643L10.752 30.167V19.394ZM18.042 21.743L21.066 21.77V18.449L22.443 19.826V23.147H19.419L18.042 21.743ZM25.1535 18.071L27.6915 15.533H35.1165L37.6545 18.071V21.23H35.4405V18.989L34.0095 17.558H28.7715L27.3405 18.989V30.545L28.7715 31.976H34.0095L35.4405 30.545V26.738H32.6865V24.713H37.6545V31.463L35.1165 34.028H27.6915L25.1535 31.463V18.071ZM35.5215 35L38.6265 31.895V24.875L40.0035 26.252V33.623L37.2495 36.377H29.4465L28.0695 35H35.5215ZM28.3125 19.394L29.1765 18.53H33.6045L34.4685 19.394V19.907H30.9045L29.6895 21.095V31.004H29.1765L28.3125 30.167V19.394ZM38.6265 22.202V18.449L40.0035 19.826V23.579H36.9795L35.6025 22.202H38.6265ZM34.9545 27.791V29.681H34.2255L32.3625 27.791H34.9545Z" fill="#EEE9DB"/>
</svg>
